<svg width="606" height="541" viewBox="0 0 606 541" fill="none" xmlns="http://www.w3.org/2000/svg">
<g clip-path="url(#clip0_23_35)">
<g opacity="0.2">
<path d="M289.393 485.348L316.973 536.84H493.708C493.985 535.164 495.337 533.864 497.048 533.858C498.954 533.858 500.499 535.449 500.499 537.41C500.499 539.372 498.954 540.963 497.048 540.963C495.342 540.963 493.985 539.657 493.708 537.981L316.308 537.992L288.728 486.499H147.034C146.757 488.176 145.4 489.481 143.694 489.481C141.788 489.481 140.243 487.891 140.243 485.929C140.243 483.968 141.788 482.377 143.694 482.377C145.4 482.377 146.757 483.683 147.034 485.359H289.393V485.348Z" fill="#A1FFFF"/>
<path d="M371.279 455.043H270.786C270.509 456.719 269.158 458.019 267.446 458.025C265.54 458.025 263.995 456.434 263.995 454.473C263.995 452.511 265.54 450.92 267.446 450.92C269.152 450.92 270.509 452.226 270.786 453.902L369.357 453.908L348.485 416.311H510.099H510.365L539.811 453.908H599.569C599.846 452.232 601.203 450.926 602.909 450.926C604.814 450.926 606.36 452.517 606.36 454.478C606.36 456.44 604.814 458.031 602.909 458.031C601.203 458.031 599.846 456.725 599.569 455.049H539.545H539.279L509.833 417.451H350.413L371.285 455.049L371.279 455.043Z" fill="#A1FFFF"/>
<path d="M664.777 385.214H664.489L613.052 310.783H449.333H449.034L407.285 246.712H665.902C666.179 245.036 667.53 243.736 669.242 243.73C671.147 243.73 672.693 245.321 672.693 247.282C672.693 249.244 671.147 250.835 669.242 250.835C667.536 250.835 666.179 249.529 665.902 247.853H409.379L449.627 309.625H613.334H613.622L665.06 384.056L926.82 384.067C927.1 382.391 928.46 381.085 930.16 381.085C932.07 381.085 933.61 382.676 933.61 384.638C933.61 386.599 932.07 388.19 930.16 388.19C928.46 388.19 927.1 386.884 926.82 385.208H664.772L664.777 385.214Z" fill="#A1FFFF"/>
<path d="M298.554 378.759L523.886 378.753H524.141L563.647 424.721H606.387L634.976 393.789L594.822 336.64C594.406 336.817 593.957 336.914 593.487 336.92C591.581 336.92 590.036 335.329 590.036 333.367C590.036 331.406 591.581 329.815 593.487 329.815C595.392 329.815 596.938 331.406 596.938 333.367C596.938 334.428 596.467 335.346 595.752 336.002L636.155 393.51L636.432 393.897L607.041 425.702L606.869 425.878H563.397H563.142L523.636 379.911H300.449L325.049 425.884H184.218C183.942 427.56 182.59 428.86 180.878 428.866C178.973 428.866 177.427 427.275 177.427 425.314C177.427 423.353 178.973 421.762 180.878 421.762C182.584 421.762 183.942 423.067 184.218 424.744H323.165L298.565 378.771L298.554 378.759Z" fill="#A1FFFF"/>
<path d="M555.936 344.931H556.224L585.726 386.861C586.192 386.622 586.696 386.456 587.25 386.456C589.155 386.456 590.701 388.047 590.701 390.009C590.701 391.97 589.155 393.561 587.25 393.561C585.344 393.561 583.799 391.97 583.799 390.009C583.799 389.028 584.186 388.15 584.801 387.506L555.654 346.077L408.049 346.071L341.628 250.949C341.085 251.325 340.459 251.593 339.756 251.599C337.85 251.599 336.305 250.008 336.305 248.046C336.305 246.085 337.85 244.494 339.756 244.494C341.661 244.494 343.206 246.085 343.206 248.046C343.206 248.856 342.896 249.563 342.459 250.162L408.625 344.919H555.936V344.931Z" fill="#A1FFFF"/>
<path d="M167.806 268.191L201.352 308.092H299.818C299.939 306.244 301.396 304.767 303.224 304.767C305.13 304.767 306.675 306.358 306.675 308.32C306.675 310.281 305.13 311.872 303.224 311.872C301.64 311.872 300.355 310.743 299.95 309.243L200.837 309.238L167.291 269.337H9.123C8.846 271.013 7.489 272.319 5.783 272.319C3.877 272.319 2.332 270.728 2.332 268.767C2.332 266.805 3.877 265.214 5.783 265.214C7.489 265.214 8.846 266.52 9.123 268.196H167.8L167.806 268.191Z" fill="#A1FFFF"/>
<path d="M912.08 164.601V269.342H692.717C692.44 271.019 691.083 272.324 689.377 272.324C687.471 272.324 685.926 270.734 685.926 268.772C685.926 266.811 687.471 265.22 689.377 265.22C691.083 265.22 692.44 266.526 692.717 268.202H910.96V165.764H666.638H666.328L617.876 87.496H448.197C447.92 89.173 446.569 90.473 444.857 90.478C442.952 90.478 441.406 88.888 441.406 86.926C441.406 84.965 442.952 83.374 444.857 83.374C446.563 83.374 447.92 84.68 448.197 86.356H618.175H618.485L666.937 164.624H912.07L912.08 164.601Z" fill="#A1FFFF"/>
<path d="M644.581 199.199H880.775V238.473C882.403 238.758 883.672 240.155 883.672 241.911C883.672 243.873 882.126 245.463 880.221 245.463C878.315 245.463 876.77 243.873 876.77 241.911C876.77 240.155 878.038 238.758 879.667 238.473V200.351H643.983L593.669 119.711H451.41L498.001 207.957H325.608V206.806H496.129L449.538 118.56H594.29L644.603 199.199H644.581Z" fill="#A1FFFF"/>
<path d="M529.531 200.351L496.051 143.881H568.538C568.815 142.205 570.167 140.905 571.878 140.899C573.784 140.899 575.329 142.49 575.329 144.451C575.329 146.413 573.784 148.003 571.878 148.003C570.172 148.003 568.815 146.698 568.538 145.021H498.045L530.162 199.188H596.112C596.389 197.512 597.741 196.212 599.453 196.206C601.159 196.206 602.516 197.512 602.793 199.188H602.904V200.34H602.793C602.516 202.016 601.164 203.316 599.453 203.322C597.741 203.327 596.389 202.016 596.112 200.34H529.852H529.542L529.531 200.351Z" fill="#A1FFFF"/>
<path d="M293.375 226.756L269.523 177.265H431.458C431.735 175.588 433.086 174.288 434.798 174.283C436.703 174.283 438.249 175.874 438.249 177.835C438.249 179.796 436.703 181.387 434.798 181.387C433.092 181.387 431.735 180.081 431.458 178.405L271.323 178.411L295.175 227.902L9.12199 227.908C8.84599 229.584 7.48799 230.89 5.78199 230.89C3.87699 230.89 2.33099 229.299 2.33099 227.338C2.33099 225.376 3.87699 223.785 5.78199 223.785C7.48799 223.785 8.84599 225.091 9.12199 226.767H293.375V226.756Z" fill="#A1FFFF"/>
<path d="M239.728 199.199L199.845 110.891H362.5C362.777 109.214 364.128 107.914 365.84 107.909C367.746 107.909 369.291 109.499 369.291 111.461C369.291 113.422 367.746 115.013 365.84 115.013C364.134 115.013 362.777 113.707 362.5 112.031H201.595L241.478 200.34H9.11699C8.83999 202.016 7.48899 203.316 5.77699 203.322C3.87199 203.322 2.32599 201.731 2.32599 199.77C2.32599 197.808 3.87199 196.217 5.77699 196.217C7.48299 196.217 8.83999 197.523 9.11699 199.199L239.722 199.194L239.728 199.199Z" fill="#A1FFFF"/>
<path d="M12.574 166.517C12.297 168.193 10.945 169.493 9.23398 169.499C7.32798 169.499 5.78297 167.908 5.78297 165.947C5.78297 163.985 7.32798 162.395 9.23398 162.395C10.94 162.395 12.297 163.7 12.574 165.377L175.71 165.382L154.102 100.548L12.524 100.542C12.153 102.099 10.851 103.279 9.23398 103.279C7.60498 103.279 6.30298 102.099 5.94298 100.542H5.77698V99.39H5.84398C6.01498 97.594 7.43897 96.174 9.22797 96.169C11.023 96.169 12.446 97.588 12.613 99.39H154.495H154.894L177.267 166.528H12.563L12.574 166.517Z" fill="#A1FFFF"/>
<path d="M128.405 132.381C128.638 130.647 130.023 129.302 131.767 129.296C133.673 129.296 135.218 130.887 135.218 132.848C135.218 134.809 133.673 136.4 131.767 136.4C130.095 136.4 128.765 135.146 128.449 133.521H12.579C12.302 135.197 10.951 136.497 9.23899 136.503C7.53299 136.503 6.17599 135.197 5.89899 133.521H5.78799V132.951L5.78299 132.375H5.89299C6.16999 130.698 7.52699 129.393 9.23299 129.393C10.94 129.393 12.297 130.699 12.574 132.375L128.405 132.381Z" fill="#A1FFFF"/>
<path d="M353.166 489.481C351.26 489.481 349.715 487.891 349.715 485.929C349.715 483.968 351.26 482.377 353.166 482.377C354.872 482.377 356.229 483.683 356.506 485.359H610.104L672.554 416.482L672.726 416.305L926.71 416.294C926.71 414.332 928.26 412.742 930.16 412.742C932.07 412.742 933.61 414.332 933.61 416.294C933.61 418.255 932.07 419.846 930.16 419.846C928.66 419.846 927.4 418.831 926.93 417.446H673.213L610.764 486.323L610.592 486.499L356.512 486.505C356.235 488.181 354.878 489.487 353.171 489.487L353.166 489.481Z" fill="#A1FFFF"/>
<path d="M136.509 298.695C136.509 296.734 138.054 295.143 139.96 295.143C141.865 295.143 143.411 296.734 143.411 298.695C143.411 299.596 143.062 300.388 142.525 301.021L201.351 375.019C201.833 374.751 202.36 374.563 202.947 374.563C204.852 374.563 206.398 376.153 206.398 378.115C206.398 380.076 204.852 381.667 202.947 381.667C201.041 381.667 199.496 380.076 199.496 378.115C199.496 377.168 199.867 376.33 200.449 375.686L141.644 301.723C141.14 302.025 140.58 302.247 139.954 302.242C138.049 302.242 136.503 300.651 136.503 298.689L136.509 298.695Z" fill="#A1FFFF"/>
<path d="M9.19499 323.441H109.4H109.677L166.332 399.411H271.667L239.611 344.931H361.752L307.412 269.348L220.174 269.342C219.897 271.019 218.54 272.324 216.834 272.324C214.928 272.324 213.383 270.734 213.383 268.772C213.383 266.811 214.928 265.22 216.834 265.22C218.54 265.22 219.897 266.526 220.174 268.202H307.694L307.977 268.196L363.967 346.082H241.594L273.65 400.563H166.055H165.778L109.123 324.592H8.97299C8.45799 325.887 7.22799 326.799 5.78199 326.805C3.87699 326.805 2.33099 325.214 2.33099 323.253C2.33099 321.291 3.87699 319.7 5.78199 319.7C7.68799 319.7 9.23299 321.291 9.23299 323.253C9.23299 323.321 9.19999 323.378 9.19499 323.441Z" fill="#A1FFFF"/>
<path d="M293.348 11.429C291.641 11.429 290.284 10.123 290.007 8.44699H176.885L155.32 66.383H336.421C336.698 64.706 338.049 63.406 339.761 63.401C341.666 63.401 343.212 64.991 343.212 66.953C343.212 68.914 341.666 70.505 339.761 70.505C338.055 70.505 336.698 69.199 336.421 67.523H153.703L176.12 7.284H290.018C290.295 5.608 291.653 4.302 293.359 4.302C295.264 4.302 296.81 5.893 296.81 7.854C296.81 9.816 295.264 11.406 293.359 11.406L293.348 11.429Z" fill="#A1FFFF"/>
<path d="M194.383 40.588C192.478 40.588 190.932 38.997 190.932 37.036C190.932 35.074 192.478 33.484 194.383 33.484C196.089 33.484 197.446 34.789 197.723 36.466H318.59C319.005 34.978 320.279 33.871 321.853 33.871C323.758 33.871 325.303 35.462 325.303 37.424C325.303 39.385 323.758 40.976 321.853 40.976C320.013 40.976 318.54 39.482 318.44 37.612H197.718C197.441 39.288 196.089 40.588 194.378 40.594L194.383 40.588Z" fill="#A1FFFF"/>
<path d="M255.509 142.644C253.603 142.644 252.058 141.053 252.058 139.091C252.058 137.13 253.603 135.539 255.509 135.539C257.414 135.539 258.96 137.13 258.96 139.091C258.96 141.053 257.414 142.644 255.509 142.644Z" fill="#A1FFFF"/>
<path d="M596.938 272.119C598.843 272.119 600.389 273.71 600.389 275.671C600.389 277.633 598.843 279.224 596.938 279.224C595.231 279.224 593.874 277.918 593.597 276.242H472.055C471.778 277.918 470.426 279.218 468.715 279.224C466.809 279.224 465.264 277.633 465.264 275.671C465.264 273.71 466.809 272.119 468.715 272.119C470.421 272.119 471.778 273.425 472.055 275.101H593.597C593.874 273.425 595.226 272.125 596.938 272.119Z" fill="#A1FFFF"/>
<path d="M409.456 447.277C407.55 447.277 406.005 445.686 406.005 443.725C406.005 441.764 407.55 440.173 409.456 440.173C411.162 440.173 412.519 441.478 412.796 443.155H487C487.277 441.478 488.628 440.178 490.34 440.173C492.246 440.173 493.791 441.764 493.791 443.725C493.791 445.686 492.246 447.277 490.34 447.277C488.634 447.277 487.277 445.971 487 444.295H412.796C412.519 445.971 411.167 447.271 409.456 447.277Z" fill="#A1FFFF"/>
</g>
</g>
<defs>
<clipPath id="clip0_23_35">
<rect width="752" height="1196" fill="white" transform="translate(-116 -335)"/>
</clipPath>
</defs>
</svg>
