<svg width="31" height="30" viewBox="0 0 31 30" fill="none" xmlns="http://www.w3.org/2000/svg">
<path d="M15.1133 0C7.12228 0 0.113281 6.13312 0.113281 13.125C0.113281 18.8259 4.01128 23.4544 10.1133 25.0978V29.0625C10.1141 29.3109 10.2197 29.5489 10.407 29.7246C10.5944 29.9002 10.8483 29.9993 11.1133 30C11.2663 30 11.4193 29.9672 11.5603 29.9016L21.6273 25.1794C27.4963 21.8775 30.1133 18.1603 30.1133 13.125C30.1133 6.13312 23.1043 0 15.1133 0ZM20.6663 23.5359L12.1133 27.5456V24.375C12.1132 24.1639 12.0372 23.959 11.8974 23.7934C11.7577 23.6279 11.5624 23.5114 11.3433 23.4628C5.73628 22.2188 2.11328 18.1613 2.11328 13.125C2.11328 7.13156 8.18828 1.875 15.1133 1.875C22.0383 1.875 28.1133 7.13156 28.1133 13.125C28.1133 17.4844 25.8653 20.6081 20.6663 23.5359Z" fill="white"/>
<path d="M17.1128 12.8409L14.9448 9.79215C14.8257 9.62474 14.6523 9.49768 14.4503 9.42977C14.2483 9.36185 14.0283 9.35668 13.8229 9.41502C13.6174 9.47337 13.4375 9.59212 13.3096 9.75373C13.1818 9.91535 13.1127 10.1112 13.1128 10.3125V16.875H15.1128V13.409L17.2808 16.4578C17.3999 16.6252 17.5732 16.7523 17.7753 16.8202C17.9773 16.8881 18.1973 16.8932 18.4027 16.8349C18.6081 16.7766 18.7881 16.6578 18.916 16.4962C19.0438 16.3346 19.1128 16.1387 19.1128 15.9375V9.37497H17.1128V12.8409ZM25.1128 11.25V9.37497H21.1128C20.8476 9.37497 20.5932 9.47374 20.4057 9.64955C20.2181 9.82537 20.1128 10.0638 20.1128 10.3125V15.9375C20.1128 16.1861 20.2181 16.4246 20.4057 16.6004C20.5932 16.7762 20.8476 16.875 21.1128 16.875H25.1128V15H22.1128V14.0625H25.1128V12.1875H22.1128V11.25H25.1128ZM7.11279 9.37497H5.11279V15.9375C5.11279 16.1861 5.21815 16.4246 5.40569 16.6004C5.59322 16.7762 5.84758 16.875 6.11279 16.875H9.11279V15H7.11279V9.37497ZM10.1128 9.37497H12.1128V16.875H10.1128V9.37497Z" fill="white"/>
</svg>
