<svg width="26" height="26" viewBox="0 0 26 26" fill="none" xmlns="http://www.w3.org/2000/svg">
<path d="M19.0696 15.613C18.8099 15.4831 17.122 14.7041 16.8623 14.5743C16.6027 14.4444 16.343 14.4444 16.0833 14.7041C15.8236 14.9638 15.3043 15.7428 15.0446 16.0025C14.9148 16.2622 14.6551 16.2622 14.3954 16.1323C13.4866 15.7428 12.5777 15.2235 11.7987 14.5743C11.1495 13.9251 10.5003 13.1461 9.98095 12.367C9.85111 12.1074 9.98095 11.8477 10.1108 11.7179C10.2406 11.588 10.3705 11.3283 10.6301 11.1985C10.76 11.0687 10.8898 10.809 10.8898 10.6792C11.0196 10.5493 11.0196 10.2896 10.8898 10.1598C10.76 10.03 10.1108 8.47191 9.85111 7.82272C9.72127 6.91386 9.4616 6.91386 9.20192 6.91386H8.55273C8.29306 6.91386 7.90354 7.17353 7.77371 7.30337C6.99468 8.0824 6.60517 8.99126 6.60517 10.03C6.735 11.1985 7.12452 12.367 7.90354 13.4057C9.33176 15.4831 11.1495 17.171 13.3567 18.2097C14.0059 18.4694 14.5253 18.7291 15.1745 18.8589C15.8236 19.1186 16.4728 19.1186 17.2519 18.9888C18.1607 18.8589 18.9397 18.2097 19.4591 17.4307C19.7188 16.9114 19.7188 16.392 19.5889 15.8727L19.0696 15.613ZM22.3155 3.79775C17.2519 -1.26592 9.07208 -1.26592 4.00841 3.79775C-0.146394 7.95256 -0.92542 14.3146 1.93101 19.3783L0.113281 26L6.99468 24.1823C8.94225 25.221 11.0196 25.7403 13.0971 25.7403C20.2381 25.7403 25.951 20.0275 25.951 12.8864C26.0808 9.51061 24.6526 6.26467 22.3155 3.79775ZM18.8099 21.975C17.122 23.0137 15.1745 23.6629 13.0971 23.6629C11.1495 23.6629 9.33176 23.1436 7.64387 22.2347L7.25435 21.975L3.22939 23.0137L4.26809 19.1186L4.00841 18.7291C0.892307 13.5356 2.45036 7.0437 7.51403 3.79775C12.5777 0.551811 19.0696 2.2397 22.1857 7.17353C25.3018 12.2372 23.8736 18.8589 18.8099 21.975Z" fill="white"/>
</svg>
