<svg width="932" height="537" viewBox="0 0 932 537" fill="none" xmlns="http://www.w3.org/2000/svg">
<g opacity="0.2">
<path d="M287.393 481.348L314.973 532.84L491.708 532.84C491.985 531.164 493.337 529.864 495.048 529.858C496.954 529.858 498.499 531.449 498.499 533.411C498.499 535.372 496.954 536.963 495.048 536.963C493.342 536.963 491.985 535.657 491.708 533.981L314.308 533.992L286.728 482.5L145.034 482.5C144.757 484.176 143.4 485.482 141.694 485.482C139.788 485.482 138.243 483.891 138.243 481.929C138.243 479.968 139.788 478.377 141.694 478.377C143.4 478.377 144.757 479.683 145.034 481.359L287.393 481.359L287.393 481.348Z" fill="#A1FFFF"/>
<path d="M369.279 451.043L268.786 451.043C268.509 452.719 267.158 454.019 265.446 454.025C263.541 454.025 261.995 452.434 261.995 450.473C261.995 448.511 263.541 446.921 265.446 446.921C267.152 446.921 268.509 448.226 268.786 449.903L367.357 449.908L346.485 412.311L508.099 412.311L508.365 412.311L537.811 449.908L597.569 449.908C597.846 448.232 599.203 446.926 600.909 446.926C602.815 446.926 604.36 448.517 604.36 450.479C604.36 452.44 602.815 454.031 600.909 454.031C599.203 454.031 597.846 452.725 597.569 451.049L537.545 451.049L537.28 451.049L507.833 413.451L348.413 413.451L369.285 451.049L369.279 451.043Z" fill="#A1FFFF"/>
<path d="M662.777 381.214H662.489L611.051 306.783L447.333 306.783L447.034 306.783L405.285 242.712L663.901 242.712C664.178 241.036 665.53 239.736 667.242 239.73C669.147 239.73 670.693 241.321 670.693 243.282C670.693 245.244 669.147 246.835 667.242 246.835C665.536 246.835 664.178 245.529 663.901 243.853L407.378 243.853L447.627 305.625L611.334 305.625L611.622 305.625L663.06 380.056L924.823 380.068C925.1 378.391 926.457 377.086 928.163 377.086C930.068 377.086 931.614 378.676 931.614 380.638C931.614 382.599 930.068 384.19 928.163 384.19C926.457 384.19 925.1 382.884 924.823 381.208L662.771 381.208L662.777 381.214Z" fill="#A1FFFF"/>
<path d="M689.615 351.285L689.338 351.285L650.48 297.957L899.758 297.957C900.035 296.28 901.386 294.98 903.098 294.975C905.003 294.975 906.549 296.565 906.549 298.527C906.549 300.488 905.003 302.079 903.098 302.079C901.392 302.079 900.035 300.773 899.758 299.097L652.718 299.097L689.897 350.128L906.15 350.128C906.133 349.996 906.072 349.877 906.078 349.746C906.078 347.784 907.623 346.193 909.529 346.193C911.434 346.193 912.98 347.784 912.98 349.746C912.98 351.707 911.434 353.298 909.529 353.298C908.166 353.298 907.003 352.465 906.449 351.279L689.62 351.279L689.615 351.285Z" fill="#A1FFFF"/>
<path d="M296.555 374.759L521.886 374.753H522.141L561.647 420.721H604.388L632.976 389.789L592.822 332.64C592.406 332.817 591.958 332.914 591.487 332.92C589.581 332.92 588.036 331.329 588.036 329.367C588.036 327.406 589.581 325.815 591.487 325.815C593.392 325.815 594.938 327.406 594.938 329.367C594.938 330.428 594.467 331.346 593.752 332.002L634.156 389.51L634.433 389.897L605.041 421.702L604.87 421.878H561.398L561.143 421.878L521.637 375.911L298.449 375.911L323.049 421.884L182.219 421.884C181.942 423.56 180.59 424.861 178.879 424.866C176.973 424.866 175.428 423.275 175.428 421.314C175.428 419.353 176.973 417.762 178.879 417.762C180.585 417.762 181.942 419.068 182.219 420.744L321.165 420.744L296.566 374.771L296.555 374.759Z" fill="#A1FFFF"/>
<path d="M553.936 340.931H554.224L583.726 382.861C584.192 382.622 584.696 382.457 585.25 382.457C587.155 382.457 588.701 384.047 588.701 386.009C588.701 387.97 587.155 389.561 585.25 389.561C583.344 389.561 581.799 387.97 581.799 386.009C581.799 385.028 582.186 384.15 582.801 383.506L553.654 342.077L406.049 342.071L339.628 246.949C339.085 247.325 338.459 247.593 337.756 247.599C335.85 247.599 334.305 246.008 334.305 244.046C334.305 242.085 335.85 240.494 337.756 240.494C339.661 240.494 341.207 242.085 341.207 244.046C341.207 244.856 340.896 245.563 340.459 246.162L406.625 340.919L553.936 340.919V340.931Z" fill="#A1FFFF"/>
<path d="M165.806 264.191L199.352 304.092L297.818 304.092C297.939 302.244 299.396 300.768 301.224 300.768C303.13 300.768 304.675 302.358 304.675 304.32C304.675 306.281 303.13 307.872 301.224 307.872C299.64 307.872 298.355 306.743 297.95 305.243L198.837 305.238L165.291 265.337L7.12279 265.337C6.84583 267.013 5.48873 268.319 3.78264 268.319C1.87713 268.319 0.331658 266.728 0.331658 264.767C0.331658 262.805 1.87711 261.214 3.78262 261.214C5.48871 261.214 6.84583 262.52 7.12279 264.196L165.8 264.196L165.806 264.191Z" fill="#A1FFFF"/>
<path d="M910.083 160.601L910.083 265.342L690.717 265.342C690.44 267.019 689.083 268.324 687.377 268.324C685.471 268.324 683.926 266.734 683.926 264.772C683.926 262.811 685.471 261.22 687.377 261.22C689.083 261.22 690.44 262.526 690.717 264.202L908.964 264.202L908.964 161.764L664.638 161.764L664.328 161.764L615.876 83.4964L446.198 83.4963C445.921 85.1726 444.569 86.4727 442.857 86.4784C440.952 86.4784 439.406 84.8876 439.406 82.9262C439.406 80.9648 440.952 79.374 442.857 79.374C444.564 79.374 445.921 80.6797 446.198 82.356L616.175 82.356L616.485 82.356L664.937 160.624L910.072 160.624L910.083 160.601Z" fill="#A1FFFF"/>
<path d="M642.581 195.199L878.775 195.199L878.775 234.473C880.403 234.758 881.672 236.155 881.672 237.911C881.672 239.873 880.126 241.464 878.221 241.464C876.315 241.464 874.77 239.873 874.77 237.911C874.77 236.155 876.038 234.758 877.667 234.473L877.667 196.351L641.983 196.351L591.67 115.711L449.41 115.711L496.001 203.957H323.608V202.806H494.129L447.538 114.56L592.29 114.56L642.603 195.199L642.581 195.199Z" fill="#A1FFFF"/>
<path d="M527.531 196.351L494.051 139.881L566.538 139.881C566.815 138.205 568.167 136.905 569.878 136.899C571.784 136.899 573.329 138.49 573.329 140.451C573.329 142.413 571.784 144.003 569.878 144.003C568.172 144.003 566.815 142.698 566.538 141.021L496.045 141.021L528.162 195.188H594.112C594.389 193.512 595.741 192.212 597.453 192.206C599.159 192.206 600.516 193.512 600.793 195.188L600.904 195.188L600.904 196.34L600.793 196.34C600.516 198.016 599.164 199.316 597.453 199.322C595.741 199.328 594.389 198.016 594.112 196.34H527.852L527.542 196.34L527.531 196.351Z" fill="#A1FFFF"/>
<path d="M291.375 222.756L267.523 173.265L429.458 173.265C429.735 171.589 431.087 170.289 432.798 170.283C434.704 170.283 436.249 171.874 436.249 173.835C436.249 175.796 434.704 177.387 432.798 177.387C431.092 177.387 429.735 176.082 429.458 174.405L269.324 174.411L293.176 223.902L7.12285 223.908C6.84589 225.584 5.48876 226.89 3.78267 226.89C1.87716 226.89 0.33172 225.299 0.33172 223.338C0.33172 221.376 1.87717 219.785 3.78268 219.785C5.48877 219.785 6.84589 221.091 7.12285 222.768L291.375 222.767L291.375 222.756Z" fill="#A1FFFF"/>
<path d="M237.728 195.199L197.845 106.891L360.5 106.891C360.777 105.214 362.128 103.914 363.84 103.909C365.745 103.909 367.291 105.499 367.291 107.461C367.291 109.422 365.745 111.013 363.84 111.013C362.134 111.013 360.777 109.707 360.5 108.031L199.595 108.031L239.478 196.34L7.11725 196.34C6.84029 198.016 5.4887 199.316 3.77707 199.322C1.87157 199.322 0.326123 197.731 0.326123 195.77C0.326123 193.808 1.87158 192.217 3.77708 192.217C5.48317 192.217 6.84029 193.523 7.11725 195.199L237.722 195.194L237.728 195.199Z" fill="#A1FFFF"/>
<path d="M10.5738 162.517C10.2968 164.193 8.94525 165.493 7.23362 165.499C5.32812 165.499 3.78268 163.908 3.78268 161.947C3.78268 159.986 5.32813 158.395 7.23363 158.395C8.93972 158.395 10.2968 159.7 10.5738 161.377L173.71 161.382L152.102 96.5478L10.5239 96.5421C10.1528 98.0987 8.85104 99.2789 7.23358 99.2789C5.60504 99.2789 4.30332 98.0986 3.94327 96.542L3.77714 96.5421L3.77714 95.3903L3.84358 95.3903C4.01529 93.5943 5.43887 92.1745 7.22805 92.1688C9.02277 92.1688 10.4464 93.5885 10.6125 95.3903L152.495 95.3903L152.894 95.3903L175.267 162.528L10.5627 162.529L10.5738 162.517Z" fill="#A1FFFF"/>
<path d="M126.405 128.381C126.638 126.647 128.023 125.302 129.767 125.296C131.673 125.296 133.218 126.887 133.218 128.848C133.218 130.81 131.673 132.4 129.767 132.4C128.095 132.4 126.765 131.146 126.449 129.521L10.5793 129.521C10.3023 131.197 8.95072 132.497 7.23909 132.503C5.533 132.503 4.17587 131.197 3.89891 129.521L3.78814 129.521V128.951L3.7826 128.375L3.89337 128.375C4.17033 126.699 5.52746 125.393 7.23355 125.393C8.93965 125.393 10.2968 126.699 10.5737 128.375L126.405 128.381V128.381Z" fill="#A1FFFF"/>
<path d="M351.166 485.482C349.261 485.482 347.715 483.891 347.715 481.929C347.715 479.968 349.261 478.377 351.166 478.377C352.872 478.377 354.229 479.683 354.506 481.359L608.105 481.359L670.554 412.482L670.726 412.305L924.712 412.294C924.712 410.332 926.257 408.742 928.163 408.742C930.068 408.742 931.614 410.332 931.614 412.294C931.614 414.255 930.068 415.846 928.163 415.846C926.656 415.846 925.404 414.831 924.933 413.446L671.213 413.446L608.764 482.323L608.592 482.5L354.512 482.505C354.235 484.182 352.878 485.487 351.172 485.487L351.166 485.482Z" fill="#A1FFFF"/>
<path d="M134.509 294.695C134.509 292.734 136.055 291.143 137.96 291.143C139.866 291.143 141.411 292.734 141.411 294.695C141.411 295.596 141.062 296.389 140.525 297.021L199.352 371.019C199.834 370.751 200.36 370.563 200.947 370.563C202.853 370.563 204.398 372.153 204.398 374.115C204.398 376.076 202.853 377.667 200.947 377.667C199.042 377.667 197.496 376.076 197.496 374.115C197.496 373.168 197.867 372.33 198.449 371.686L139.644 297.723C139.14 298.025 138.581 298.247 137.955 298.242C136.049 298.242 134.504 296.651 134.504 294.689L134.509 294.695Z" fill="#A1FFFF"/>
<path d="M7.19477 319.441L107.4 319.441L107.677 319.441L164.332 395.411L269.667 395.411L237.611 340.931L359.752 340.931L305.412 265.348L218.174 265.343C217.897 267.019 216.54 268.325 214.834 268.325C212.928 268.325 211.383 266.734 211.383 264.772C211.383 262.811 212.928 261.22 214.834 261.22C216.54 261.22 217.897 262.526 218.174 264.202L305.694 264.202L305.977 264.196L361.968 342.082L239.594 342.082L271.65 396.563L164.055 396.563L163.779 396.563L107.123 320.593L6.9732 320.593C6.45804 321.887 5.22833 322.799 3.78258 322.805C1.87708 322.805 0.331634 321.214 0.331634 319.253C0.331634 317.291 1.87709 315.7 3.78259 315.7C5.6881 315.7 7.23354 317.291 7.23354 319.253C7.23354 319.321 7.20031 319.378 7.19477 319.441V319.441Z" fill="#A1FFFF"/>
<path d="M291.348 7.42924C289.642 7.42924 288.284 6.12355 288.007 4.44723L174.885 4.44725L153.32 62.3828L334.421 62.3828C334.698 60.7064 336.049 59.4065 337.761 59.4008C339.667 59.4008 341.212 60.9916 341.212 62.953C341.212 64.9144 339.667 66.5051 337.761 66.5051C336.055 66.5051 334.698 65.1994 334.421 63.5231L151.703 63.5231L174.12 3.28411L288.019 3.28408C288.295 1.60777 289.653 0.302077 291.359 0.302077C293.264 0.302077 294.81 1.89286 294.81 3.85426C294.81 5.81566 293.264 7.40644 291.359 7.40644L291.348 7.42924Z" fill="#A1FFFF"/>
<path d="M192.383 36.5881C190.478 36.5881 188.932 34.9973 188.932 33.0359C188.932 31.0745 190.478 29.4837 192.383 29.4837C194.089 29.4837 195.447 30.7894 195.723 32.4658L316.59 32.4658C317.006 30.9776 318.28 29.8715 319.853 29.8715C321.758 29.8715 323.304 31.4622 323.304 33.4236C323.304 35.385 321.758 36.9759 319.853 36.9759C318.014 36.9759 316.54 35.482 316.441 33.6118L195.718 33.6118C195.441 35.2881 194.089 36.5881 192.378 36.5938L192.383 36.5881Z" fill="#A1FFFF"/>
<path d="M253.509 138.644C251.603 138.644 250.058 137.053 250.058 135.092C250.058 133.13 251.603 131.539 253.509 131.539C255.414 131.539 256.96 133.13 256.96 135.092C256.96 137.053 255.414 138.644 253.509 138.644Z" fill="#A1FFFF"/>
<path d="M594.938 268.119C596.843 268.119 598.389 269.71 598.389 271.671C598.389 273.633 596.843 275.224 594.938 275.224C593.232 275.224 591.875 273.918 591.598 272.242L470.055 272.242C469.778 273.918 468.427 275.218 466.715 275.224C464.81 275.224 463.264 273.633 463.264 271.671C463.264 269.71 464.81 268.119 466.715 268.119C468.421 268.119 469.778 269.425 470.055 271.101L591.598 271.101C591.875 269.425 593.226 268.125 594.938 268.119V268.119Z" fill="#A1FFFF"/>
<path d="M709.744 226.12C707.839 226.12 706.293 224.529 706.293 222.568C706.293 220.607 707.839 219.016 709.744 219.016C711.451 219.016 712.808 220.321 713.085 221.998L836.111 221.998C836.388 220.321 837.74 219.021 839.452 219.016C841.357 219.016 842.903 220.607 842.903 222.568C842.903 224.529 841.357 226.12 839.452 226.12C837.746 226.12 836.388 224.814 836.111 223.138L713.085 223.138C712.808 224.814 711.456 226.114 709.744 226.12Z" fill="#A1FFFF"/>
<path d="M885.671 327.03C883.965 327.03 882.608 325.724 882.331 324.048L713.085 324.048C712.808 325.724 711.451 327.03 709.744 327.03C707.839 327.03 706.293 325.439 706.293 323.478C706.293 321.516 707.839 319.925 709.744 319.925C711.45 319.925 712.808 321.231 713.085 322.907L882.331 322.907C882.608 321.231 883.96 319.931 885.671 319.925C887.577 319.925 889.122 321.516 889.122 323.478C889.122 325.439 887.577 327.03 885.671 327.03V327.03Z" fill="#A1FFFF"/>
<path d="M407.456 443.277C405.551 443.277 404.005 441.686 404.005 439.725C404.005 437.764 405.551 436.173 407.456 436.173C409.162 436.173 410.519 437.478 410.796 439.155L485 439.155C485.277 437.478 486.629 436.178 488.34 436.173C490.246 436.173 491.791 437.764 491.791 439.725C491.791 441.686 490.246 443.277 488.34 443.277C486.634 443.277 485.277 441.971 485 440.295L410.796 440.295C410.519 441.971 409.168 443.271 407.456 443.277Z" fill="#A1FFFF"/>
</g>
</svg>
